<svg height="103pt" preserveAspectRatio="xMidYMid meet" viewBox="0 0 223 103" width="223pt" xmlns="http://www.w3.org/2000/svg"><g transform="matrix(.1 0 0 -.1 0 103)"><path d="m0 515v-515h1115 1115v515 515h-1115-1115zm2110 5v-400h-1000-1000v400 400h1000 1000z"/><path d="m120 520v-390h990 990v390 390h-990-990zm484 120c19-19 19-20 2-39-16-18-20-18-33-6-17 18-39 19-49 4-4-6 18-34 50-63 47-44 56-58 56-87 0-46-23-77-64-84-62-12-130 43-90 72 23 17 31 16 38-2 7-20 55-19 63 1 4 10-13 32-51 67-48 45-56 58-56 88 0 71 82 101 134 49zm126-21c0-45 2-50 18-44 44 19 71 17 96-8 24-24 26-33 26-112v-85h-30-30v74c0 77-12 102-44 90-26-10-36-38-36-103 0-58-1-61-25-61h-25v150 150h25c23 0 25-3 25-51zm620 0c0-43 3-50 16-45 90 35 154-8 154-102 0-75-77-130-140-99-16 9-30 11-30 6s-11-9-25-9h-25v150 150h25c23 0 25-3 25-51zm-330-38c0-21-13-41-26-41-21 0-34-43-34-111 0-56-1-59-25-59h-25v106 106l30-4c17-3 33-1 36 4 7 11 44 10 44-1zm177-8c69-32 81-128 23-177-41-34-64-39-105-26-115 38-92 215 28 219 11 1 35-7 54-16zm523 2c32-16 60-61 60-95 0-19-6-20-85-20-90 0-103-8-59-37 22-14 31-15 56-5 21 8 37 8 50 1 24-13 15-27-29-45-77-32-153 18-153 100 0 89 83 141 160 101z"/><path d="m1390 533c-40-14-53-69-22-96 52-48 132 20 90 75-15 19-47 28-68 21z"/><path d="m1123 530c-52-21-31-110 25-110 37 0 52 17 52 56 0 23-7 38-22 48-25 18-25 18-55 6z"/><path d="m1632 528c-22-22-13-28 38-28 28 0 50 4 50 8 0 16-25 32-50 32-14 0-31-5-38-12z"/></g></svg>